<?xml version="1.0" standalone="no"?>
<!DOCTYPE svg PUBLIC "-//W3C//DTD SVG 20010904//EN"
 "http://www.w3.org/TR/2001/REC-SVG-20010904/DTD/svg10.dtd">
<svg version="1.0" xmlns="http://www.w3.org/2000/svg"
 width="260.000000pt" height="260.000000pt" viewBox="0 0 260.000000 260.000000"
 preserveAspectRatio="xMidYMid meet">
<metadata>
Created by potrace 1.11, written by Peter Selinger 2001-2013
</metadata>
<g transform="translate(0.000000,260.000000) scale(0.100000,-0.100000)"
fill="#000000" stroke="none">
<path d="M1770 2373 c-176 -27 -410 -203 -494 -371 -48 -97 -68 -178 -81 -327
-3 -38 -8 -86 -10 -105 -2 -19 -7 -62 -10 -95 -3 -33 -8 -76 -10 -95 -6 -51
-14 -127 -20 -191 -3 -31 -8 -67 -10 -80 -3 -13 -7 -41 -11 -64 -15 -105 -66
-214 -131 -279 -175 -176 -354 -176 -468 0 -95 148 -49 305 143 493 l86 84
-30 24 c-38 33 -55 47 -143 117 l-73 58 -31 -28 c-201 -181 -297 -357 -298
-548 -1 -122 41 -243 125 -359 246 -345 627 -366 939 -52 131 132 216 351 242
625 3 36 8 81 10 100 5 50 15 157 19 210 28 348 64 441 207 536 124 83 240 67
343 -46 140 -156 108 -315 -101 -502 l-52 -47 97 -77 c53 -43 106 -86 118 -96
21 -18 22 -18 86 45 272 267 301 522 93 807 -123 167 -271 257 -434 264 -42 1
-87 1 -101 -1z"/>
<path d="M872 1848 c-57 -31 -226 -190 -242 -228 -7 -17 -10 -44 -6 -64 7 -35
55 -91 89 -102 33 -10 81 5 122 40 l40 35 -22 22 -21 22 -38 -32 c-45 -36 -66
-39 -94 -11 -40 40 -31 54 111 185 112 104 134 112 168 69 28 -36 27 -46 -15
-87 -35 -34 -36 -35 -18 -56 10 -11 21 -21 25 -21 14 0 63 57 76 88 13 31 12
38 -7 75 -39 79 -99 102 -168 65z"/>
<path d="M1737 1202 l-168 -168 66 -61 c36 -33 75 -63 88 -65 41 -8 84 12 127
58 37 40 41 50 38 84 -3 38 -3 38 26 35 61 -8 134 76 120 138 -6 27 -107 147
-123 147 -3 0 -82 -76 -174 -168z m218 61 c39 -45 29 -90 -26 -118 -35 -19
-57 -14 -88 19 l-21 23 52 51 c29 29 54 52 56 52 2 0 14 -12 27 -27z m-131
-167 c8 -16 11 -36 8 -45 -21 -51 -78 -95 -108 -85 -25 9 -64 45 -64 58 0 6
28 37 62 68 67 62 72 63 102 4z"/>
</g>
</svg>
